<?xml version="1.0" encoding="UTF-8" standalone="no"?>
<svg
   xmlns:dc="http://purl.org/dc/elements/1.1/"
   xmlns:cc="http://creativecommons.org/ns#"
   xmlns:rdf="http://www.w3.org/1999/02/22-rdf-syntax-ns#"
   xmlns:svg="http://www.w3.org/2000/svg"
   xmlns="http://www.w3.org/2000/svg"
   id="svg8"
   version="1.1"
   viewBox="0 0 178.64929 240.50867"
   height="240.50867mm"
   width="178.64929mm">
  <defs
     id="defs2" />
  <metadata
     id="metadata5">
    <rdf:RDF>
      <cc:Work
         rdf:about="">
        <dc:format>image/svg+xml</dc:format>
        <dc:type
           rdf:resource="http://purl.org/dc/dcmitype/StillImage" />
        <dc:title></dc:title>
      </cc:Work>
    </rdf:RDF>
  </metadata>
  <g
     transform="translate(-18.142325,-24.316135)"
     id="layer1">
    <g
       transform="matrix(0.35277779,0,0,0.35277779,-360.83989,25.260314)"
       id="g3749">
      <g
         transform="matrix(0.78952536,0,0,0.78952536,1163.3881,119.24345)"
         id="g4639">
        <g
           id="g4622"
           transform="matrix(0.81477308,0,0,0.75483193,19.378326,172.66891)">
          <path
             style="fill:#3880ff;fill-opacity:1"
             d="M 255.80469,86.875 V 61.6875 h 22.9375 l 8.13672,-8.140625 V 8.140625 L 278.74219,0 H 151.25 l -8.14063,8.140625 v 45.40625 L 151.25,61.6875 h 22.9375 V 86.875 C 77.085938,105.47656 0.5,191.13672 0.5,297.50391 0.5,416.04687 96.433594,512 214.99609,512 c 118.54297,0 214.4961,-95.93359 214.4961,-214.49609 0,-106.40235 -76.61719,-192.03125 -173.6875,-210.62891 z M 158.10156,14.992188 H 271.89062 V 46.695312 H 255.80469 V 27.484375 H 240.8125 V 46.695312 H 222.49219 V 27.484375 H 207.5 V 46.695312 H 189.01172 V 27.484375 H 174.01953 V 46.695312 H 158.10156 Z M 240.8125,61.6875 V 81.816406 H 189.17969 V 61.6875 Z m -25.81641,435.32031 c -110.00781,0 -199.507809,-89.49609 -199.507809,-199.5039 C 15.488281,187.49609 104.98828,98 214.99609,98 325.00391,98 414.5,187.49609 414.5,297.50391 c 0,110.00781 -89.49609,199.5039 -199.50391,199.5039 z m 0,0"
             id="path3729" />
          <path
             style="fill:#3880ff;fill-opacity:1"
             d="m 214.99609,133.42187 c -90.47656,0 -164.085934,73.60547 -164.085934,164.08204 0,90.47656 73.609374,164.08593 164.085934,164.08593 90.47657,0 164.08203,-73.60937 164.08203,-164.08593 0,-90.47657 -73.60546,-164.08203 -164.08203,-164.08204 z m 99.94141,53.54297 -25.26953,25.26563 10.60156,10.60156 25.26563,-25.26953 c 23.94921,26.46094 38.55468,61.52734 38.55468,99.94141 0,38.41406 -14.60547,73.48046 -38.55468,99.9414 l -25.26563,-25.26953 -10.60156,10.60156 25.26953,25.26563 c -24.73047,22.38281 -56.97656,36.60156 -92.44531,38.36719 v -35.8086 H 207.5 v 35.8086 c -35.47266,-1.76563 -67.71484,-15.98438 -92.44531,-38.36719 l 25.26562,-25.26563 -10.59765,-10.60156 -25.26953,25.26953 C 82.074219,372.71484 67.855469,340.46875 66.089844,305 H 101.89453 V 290.00781 H 66.089844 c 1.765625,-35.46875 15.984375,-67.71484 38.363286,-92.44531 l 25.26953,25.26953 10.59765,-10.60156 -25.26562,-25.26563 c 26.46093,-23.94921 61.52734,-38.55468 99.9414,-38.55468 38.41407,0 73.48047,14.60547 99.94141,38.55468 z m 0,0"
             id="path3731" />
          <path
             style="fill:#3880ff;fill-opacity:1"
             d="M 351.59766,290.00781 H 222.49219 V 160.90234 H 207.5 V 305 h 144.09766 z m 0,0"
             id="path3733" />
          <path
             style="fill:#3880ff;fill-opacity:1"
             d="m 324.4375,162.73437 c -18.41016,-15.1914 -39.32031,-26.19531 -62.15234,-32.70703 l 4.11328,-14.41796 c 24.83203,7.08203 47.5664,19.04687 67.58203,35.56249 z m -71.42969,-35.07421 c -4.64453,-1.04688 -9.39844,-1.91016 -14.1289,-2.56641 l 2.0625,-14.85156 c 5.14453,0.71484 10.3125,1.65625 15.36328,2.79297 z m -23.65234,-3.6211 c -4.74219,-0.39062 -9.57422,-0.58984 -14.35938,-0.58984 v -14.99219 c 5.19532,0 10.44141,0.21485 15.59375,0.64063 z m 0,0"
             id="path3735" />
        </g>
        <path
           style="fill:#3880ff;fill-opacity:1;stroke:none;stroke-width:16.96736908;stroke-linecap:butt;stroke-linejoin:miter;stroke-miterlimit:4;stroke-dasharray:none;stroke-opacity:1"
           d="m -101.0876,-118.99998 c 4.13204,0 7.02522,174.714464 6.730516,390.09943 -0.271816,198.72609 -2.998509,364.49562 -5.980906,386.89009 -8.10057,1.33635 -12.30548,1.98031 -12.51622,1.94453 -0.21085,-0.0358 3.58039,-0.74907 11.01696,-2.04995 -2.98225,-22.80931 -5.70899,-188.80728 -5.98085,-387.22219 -0.29488,-215.043295 2.5983,-389.66191 6.7305,-389.66191 z"
           id="path4566" />
        <path
           style="fill:#3880ff;fill-opacity:1;stroke:none;stroke-width:16.96736908;stroke-linecap:butt;stroke-linejoin:miter;stroke-miterlimit:4;stroke-dasharray:none;stroke-opacity:1"
           d="m 521.79364,-125.96773 c 4.1321,0 7.0253,174.714462 6.7306,390.09943 -0.2719,198.72609 -2.9985,364.49562 -5.9809,386.89009 -8.1006,1.33636 -12.3055,1.98032 -12.5163,1.94453 -0.2108,-0.0358 3.5804,-0.74907 11.017,-2.04995 -2.9823,-22.80931 -5.709,-188.80728 -5.9809,-387.22219 -0.2948,-215.043299 2.5983,-389.66191 6.7305,-389.66191 z"
           id="path4566-6" />
        <path
           style="fill:#3880ff;fill-opacity:1;stroke:none;stroke-width:14.08527374;stroke-linecap:butt;stroke-linejoin:miter;stroke-miterlimit:4;stroke-dasharray:none;stroke-opacity:1"
           d="m 475.8893,-141.75802 c -0.003,4.13209 -120.40655,6.82594 -268.8346,6.28548 -136.947943,-0.49865 -251.182593,-3.41439 -266.612963,-6.42234 -0.91455,-8.10212 -1.355,-12.30775 -1.33019,-12.51851 0.0249,-0.21076 0.51341,3.58125 1.40404,11.01933 15.72092,-2.95627 130.11728,-5.49357 266.851203,-5.53907 148.19306,-0.0494 268.52575,3.04291 268.52251,7.17511 z"
           id="path4566-6-9" />
        <path
           style="fill:#3880ff;fill-opacity:1;stroke:none;stroke-width:14.08527279;stroke-linecap:butt;stroke-linejoin:miter;stroke-miterlimit:4;stroke-dasharray:none;stroke-opacity:1"
           d="m 485.52828,702.72611 c 0,4.13209 -120.4065,6.82594 -268.8346,6.28548 -136.947896,-0.49865 -251.182596,-3.41439 -266.612896,-6.42234 -0.914601,-8.10212 -1.355001,-12.30775 -1.330201,-12.51851 0.025,-0.21076 0.5134,3.58125 1.404001,11.01933 15.7209,-2.95627 130.1173,-5.49357 266.851196,-5.53907 148.1931,-0.0494 268.5258,3.04291 268.5225,7.17511 z"
           id="path4566-6-9-0" />
        <text
           xml:space="preserve"
           style="font-style:normal;font-weight:normal;font-size:29.99999809px;line-height:1.25;font-family:sans-serif;letter-spacing:0px;word-spacing:0px;fill:#000000;fill-opacity:1;stroke:none;stroke-width:0.74999994"
           x="-35.718254"
           y="-9.7142763"
           id="text4626"><tspan
             id="tspan4624"
             x="-35.718254"
             y="-9.7142763"
             style="font-size:72px;fill:#3880ff;fill-opacity:1;stroke-width:0.74999994">Practice Plan</tspan></text>
      </g>
    </g>
  </g>
</svg>
